<?xml version="1.0" encoding="utf-8"?>
<!-- Generator: Adobe Illustrator 21.0.0, SVG Export Plug-In . SVG Version: 6.00 Build 0)  -->
<svg version="1.1" id="Layer_1" xmlns="http://www.w3.org/2000/svg" xmlns:xlink="http://www.w3.org/1999/xlink" x="0px" y="0px"
	 viewBox="0 0 512 512" style="enable-background:new 0 0 512 512;" xml:space="preserve">
<g>
	<path d="M501.3,132.6c-5.9-22.1-23.2-39.4-45.3-45.3C416.1,76.6,256,76.6,256,76.6s-160.1,0-200.1,10.7
		c-22.1,5.9-39.3,23.2-45.3,45.3C0,172.6,0,256,0,256s0,83.4,10.7,123.4c5.9,22.1,23.3,39.4,45.3,45.3
		C95.9,435.4,256,435.4,256,435.4s160.1,0,200.1-10.7c22.1-5.9,39.4-23.3,45.3-45.3C512,339.4,512,256,512,256
		S512,172.6,501.3,132.6z M205.1,332.6V179.4l132.6,76L205.1,332.6z"/>
</g>
</svg>
