<?xml version="1.0" encoding="UTF-8"?>
<svg width="545px" height="545px" viewBox="0 0 545 545" version="1.1" xmlns="http://www.w3.org/2000/svg" xmlns:xlink="http://www.w3.org/1999/xlink">
    <!-- Generator: Sketch 50.2 (55047) - http://www.bohemiancoding.com/sketch -->
    <title>icon</title>
    <desc>Created with Sketch.</desc>
    <defs></defs>
    <g id="Page-1" stroke="none" stroke-width="1" fill="none" fill-rule="evenodd">
        <g id="icon" fill-rule="nonzero">
            <path d="M272.1,0 C2.1,0 0,121.9 0,272.2 C0,422.5 2.1,544.3 272.1,544.3 C542.1,544.3 544.2,422.5 544.2,272.2 C544.2,121.9 542.1,0 272.1,0 Z" id="Shape" fill="#5F30E3"></path>
            <g id="icon-mask" transform="translate(113.000000, 151.000000)" fill="#FFFFFF">
                <path d="M272.271484,0 L46.7285156,0 C20.9592969,0 0,20.9665385 0,46.7307692 L0,196.269231 C0,222.033462 20.9592969,243 46.7285156,243 L272.271484,243 C298.040703,243 319,222.033462 319,196.269231 L319,46.7307692 C319,20.9665385 298.040703,0 272.271484,0 Z M300.308594,196.269231 C300.308594,211.727769 287.729277,224.307692 272.271484,224.307692 L46.7285156,224.307692 C31.2707227,224.307692 18.6914062,211.727769 18.6914062,196.269231 L18.6914062,46.7307692 C18.6914062,31.2722308 31.2707227,18.6923077 46.7285156,18.6923077 L272.271484,18.6923077 C287.729277,18.6923077 300.308594,31.2722308 300.308594,46.7307692 L300.308594,196.269231 Z" id="Shape"></path>
                <path d="M211.180604,113.029605 L126.908087,66.1789875 C124.011609,64.5673263 120.472163,64.6110535 117.61314,66.291429 C114.754117,67.9780513 113,71.0514518 113,74.3684756 L113,169.631399 C113,172.973409 114.779086,176.06555 117.669322,177.739679 C120.615739,179.445041 124.186396,179.388821 127.026692,177.758419 L211.29921,129.346114 C214.226899,127.665738 216.024713,124.52987 215.999743,121.150379 C215.974774,117.770888 214.133263,114.666254 211.180604,113.029605 Z M131.727226,153.446072 L131.727226,90.2914389 L187.596784,121.350275 L131.727226,153.446072 Z" id="Shape"></path>
            </g>
        </g>
    </g>
</svg>